<?xml version="1.0" encoding="utf-8"?>
<!-- Generator: Adobe Illustrator 16.0.0, SVG Export Plug-In . SVG Version: 6.00 Build 0)  -->
<!DOCTYPE svg PUBLIC "-//W3C//DTD SVG 1.1//EN" "http://www.w3.org/Graphics/SVG/1.1/DTD/svg11.dtd">
<svg version="1.1" id="Layer_1" xmlns="http://www.w3.org/2000/svg" xmlns:xlink="http://www.w3.org/1999/xlink" x="0px" y="0px"
	 width="338.463px" height="291.983px" viewBox="0 0 338.463 291.983" enable-background="new 0 0 338.463 291.983"
	 xml:space="preserve">
<rect x="50.868" y="30.724" fill="#92278F" stroke="#FFF200" stroke-width="3" stroke-linecap="round" stroke-linejoin="round" stroke-miterlimit="10" width="224" height="224.001"/>
<g>
	<text transform="matrix(1 0 0 1 72.3745 1010.5371)" fill="#ED1C24" font-family="'DINPro-Light'" font-size="12">Nacimien</text>
	<text transform="matrix(1 0 0 1 122.8467 1010.5371)" fill="#ED1C24" font-family="'DINPro-Light'" font-size="12">t</text>
	<text transform="matrix(1 0 0 1 126.7227 1010.5371)" fill="#ED1C24" font-family="'DINPro-Light'" font-size="12">o: 19 / 12 / 1994</text>
	<text transform="matrix(1 0 0 1 72.3745 1024.9375)" fill="#ED1C24" font-family="'DINPro-Light'" font-size="12">Nacionalidad: Chi</text>
	<text transform="matrix(1 0 0 1 165.2666 1024.9375)" fill="#ED1C24" font-family="'DINPro-Light'" font-size="12">l</text>
	<text transform="matrix(1 0 0 1 168.4106 1024.9375)" fill="#ED1C24" font-family="'DINPro-Light'" font-size="12">ena</text>
	<text transform="matrix(1 0 0 1 72.3745 1039.3379)" fill="#ED1C24" font-family="'DINPro-Light'" font-size="12">Idiomas: Español</text>
	<text transform="matrix(1 0 0 1 72.3745 1053.7373)" fill="#ED1C24" font-family="'DINPro-Light'" font-size="12">                 Ing</text>
	<text transform="matrix(1 0 0 1 140.8716 1053.7373)" fill="#ED1C24" font-family="'DINPro-Light'" font-size="12">l</text>
	<text transform="matrix(1 0 0 1 144.0269 1053.7373)" fill="#ED1C24" font-family="'DINPro-Light'" font-size="12">es (in</text>
	<text transform="matrix(1 0 0 1 172.3467 1053.7373)" fill="#ED1C24" font-family="'DINPro-Light'" font-size="12">t</text>
	<text transform="matrix(1 0 0 1 176.2109 1053.7373)" fill="#ED1C24" font-family="'DINPro-Light'" font-size="12">ermedio)</text>
	<text transform="matrix(1 0 0 1 72.3789 986.8271)" fill="#ED1C24" font-family="'DINPro-Regular'" font-size="18">Da</text>
	<text transform="matrix(1 0 0 1 93.9609 986.8271)" fill="#ED1C24" font-family="'DINPro-Regular'" font-size="18">t</text>
	<text transform="matrix(1 0 0 1 99.811 986.8271)" fill="#ED1C24" font-family="'DINPro-Regular'" font-size="18">os </text>
	<text transform="matrix(1 0 0 1 122.7607 986.8271)" fill="#ED1C24" font-family="'DINPro-Regular'" font-size="18">P</text>
	<text transform="matrix(1 0 0 1 133.939 986.8271)" fill="#ED1C24" font-family="'DINPro-Regular'" font-size="18">e</text>
	<text transform="matrix(1 0 0 1 143.479 986.8271)" fill="#ED1C24" font-family="'DINPro-Regular'" font-size="18">r</text>
	<text transform="matrix(1 0 0 1 150.895 986.8271)" fill="#ED1C24" font-family="'DINPro-Regular'" font-size="18">sona</text>
	<text transform="matrix(1 0 0 1 188.9468 986.8271)" fill="#ED1C24" font-family="'DINPro-Regular'" font-size="18">l</text>
	<text transform="matrix(1 0 0 1 193.8428 986.8271)" fill="#ED1C24" font-family="'DINPro-Regular'" font-size="18">es</text>
	<path fill="#ED1C24" d="M72.378,990.494h143H72.378z"/>
	<line fill="#ED1C24" x1="72.378" y1="990.494" x2="215.378" y2="990.494"/>
</g>
<text transform="matrix(1 0 0 1 159.9668 1109.8252)" fill="#ED1C24" font-family="'DINPro-Light'" font-size="12">o</text>
<g>
	<text transform="matrix(1 0 0 1 72.3789 1109.8252)" fill="#ED1C24" font-family="'DINPro-Light'" font-size="12">&gt;    Diseño g</text>
	<text transform="matrix(1 0 0 1 136.627 1109.8252)" fill="#ED1C24" font-family="'DINPro-Light'" font-size="12">r</text>
	<text transform="matrix(1 0 0 1 141.415 1109.8252)" fill="#ED1C24" font-family="'DINPro-Light'" font-size="12">áﬁ</text>
	<text transform="matrix(1 0 0 1 154.2671 1109.8252)" fill="#ED1C24" font-family="'DINPro-Light'" font-size="12">c</text>
	<text transform="matrix(1 0 0 1 72.3789 1124.2256)" fill="#ED1C24" font-family="'DINPro-Light'" font-size="12">&gt;    Ilu</text>
	<text transform="matrix(1 0 0 1 104.2275 1124.2256)" fill="#ED1C24" font-family="'DINPro-Light'" font-size="12">s</text>
	<text transform="matrix(1 0 0 1 110.0469 1124.2256)" fill="#ED1C24" font-family="'DINPro-Light'" font-size="12">t</text>
	<text transform="matrix(1 0 0 1 113.9468 1124.2256)" fill="#ED1C24" font-family="'DINPro-Light'" font-size="12">r</text>
	<text transform="matrix(1 0 0 1 118.7471 1124.2256)" fill="#ED1C24" font-family="'DINPro-Light'" font-size="12">ación</text>
	<text transform="matrix(1 0 0 1 72.3789 1138.625)" fill="#ED1C24" font-family="'DINPro-Light'" font-size="12">&gt;    Animación</text>
	<text transform="matrix(1 0 0 1 72.3789 1086.1123)" fill="#ED1C24" font-family="'DINPro-Regular'" font-size="18">In</text>
	<text transform="matrix(1 0 0 1 87.5708 1086.1123)" fill="#ED1C24" font-family="'DINPro-Regular'" font-size="18">t</text>
	<text transform="matrix(1 0 0 1 93.4209 1086.1123)" fill="#ED1C24" font-family="'DINPro-Regular'" font-size="18">e</text>
	<text transform="matrix(1 0 0 1 102.9609 1086.1123)" fill="#ED1C24" font-family="'DINPro-Regular'" font-size="18">r</text>
	<text transform="matrix(1 0 0 1 109.9448 1086.1123)" fill="#ED1C24" font-family="'DINPro-Regular'" font-size="18">és</text>
	<path fill="#ED1C24" d="M72.378,1089.778h143H72.378z"/>
	<line fill="#ED1C24" x1="72.378" y1="1089.778" x2="215.378" y2="1089.778"/>
</g>
<text transform="matrix(1 0 0 1 72.3789 1319.1582)" fill="#ED1C24" font-family="'DINPro-Light'" font-size="12">In</text>
<text transform="matrix(1 0 0 1 82.375 1319.1582)" fill="#ED1C24" font-family="'DINPro-Light'" font-size="12">s</text>
<text transform="matrix(1 0 0 1 88.1948 1319.1582)" fill="#ED1C24" font-family="'DINPro-Light'" font-size="12">t</text>
<text transform="matrix(1 0 0 1 92.0708 1319.1582)" fill="#ED1C24" font-family="'DINPro-Light'" font-size="12">ag</text>
<text transform="matrix(1 0 0 1 104.8389 1319.1582)" fill="#ED1C24" font-family="'DINPro-Light'" font-size="12">r</text>
<text transform="matrix(1 0 0 1 109.627 1319.1582)" fill="#ED1C24" font-family="'DINPro-Light'" font-size="12">am: b</text>
<text transform="matrix(1 0 0 1 139.4951 1319.1582)" fill="#ED1C24" font-family="'DINPro-Light'" font-size="12">v</text>
<text transform="matrix(1 0 0 1 144.5469 1319.1582)" fill="#ED1C24" font-family="'DINPro-Light'" font-size="12">a_pinky</text>
<text transform="matrix(1 0 0 1 72.3789 1295.4443)" fill="#ED1C24" font-family="'DINPro-Regular'" font-size="18">Redes</text>
<path fill="#ED1C24" d="M72.378,1299.111h143H72.378z"/>
<line fill="#ED1C24" x1="72.378" y1="1299.111" x2="215.378" y2="1299.111"/>
<text transform="matrix(1 0 0 1 72.3789 1205.6826)" fill="#ED1C24" font-family="'DINPro-Light'" font-size="12">Titulado de la</text>
<text transform="matrix(1 0 0 1 72.3789 1220.083)" fill="#ED1C24" font-family="'DINPro-Light'" font-size="12">Uni</text>
<text transform="matrix(1 0 0 1 90.2832 1220.083)" fill="#ED1C24" font-family="'DINPro-Light'" font-size="12">v</text>
<text transform="matrix(1 0 0 1 95.3228 1220.083)" fill="#ED1C24" font-family="'DINPro-Light'" font-size="12">e</text>
<text transform="matrix(1 0 0 1 101.5986 1220.083)" fill="#ED1C24" font-family="'DINPro-Light'" font-size="12">r</text>
<text transform="matrix(1 0 0 1 106.3989 1220.083)" fill="#ED1C24" font-family="'DINPro-Light'" font-size="12">sidad Finis </text>
<text transform="matrix(1 0 0 1 166.063 1220.083)" fill="#ED1C24" font-family="'DINPro-Light'" font-size="12">T</text>
<text transform="matrix(1 0 0 1 171.7388 1220.083)" fill="#ED1C24" font-family="'DINPro-Light'" font-size="12">er</text>
<text transform="matrix(1 0 0 1 182.9229 1220.083)" fill="#ED1C24" font-family="'DINPro-Light'" font-size="12">r</text>
<text transform="matrix(1 0 0 1 187.7231 1220.083)" fill="#ED1C24" font-family="'DINPro-Light'" font-size="12">ae</text>
<text transform="matrix(1 0 0 1 72.3789 1234.0625)" fill="#ED1C24" font-family="'DINPro-Light'" font-size="12">2014 - 2018</text>
<text transform="matrix(1 0 0 1 72.3789 1254.5469)" fill="#ED1C24" font-family="'DINPro-Light'" font-size="12">Seminario </text>
<text transform="matrix(1 0 0 1 129.3911 1254.5469)" fill="#ED1C24" font-family="'DINPro-Light'" font-size="12">P</text>
<text transform="matrix(1 0 0 1 136.8428 1254.5469)" fill="#ED1C24" font-family="'DINPro-Light'" font-size="12">ontiﬁcio Menor</text>
<text transform="matrix(1 0 0 1 72.3789 1268.9463)" fill="#ED1C24" font-family="'DINPro-Light'" font-size="12">1998 - 2013</text>
<text transform="matrix(1 0 0 1 72.3789 1181.9678)" fill="#ED1C24" font-family="'DINPro-Regular'" font-size="18">Edu</text>
<text transform="matrix(1 0 0 1 103.105 1181.9678)" fill="#ED1C24" font-family="'DINPro-Regular'" font-size="18">c</text>
<text transform="matrix(1 0 0 1 111.7271 1181.9678)" fill="#ED1C24" font-family="'DINPro-Regular'" font-size="18">ación</text>
<path fill="#ED1C24" d="M72.378,1185.635h143H72.378z"/>
<line fill="#ED1C24" x1="72.378" y1="1185.635" x2="215.378" y2="1185.635"/>
<line fill="none" stroke="#BCB232" stroke-miterlimit="10" x1="413.334" y1="929.623" x2="760.665" y2="929.623"/>
<text transform="matrix(1 0 0 1 413.3438 925.3652)" fill="#231F20" font-family="'DINPro-Regular'" font-size="18.5435">Habilidades</text>
<text transform="matrix(1 0 0 1 502 906.6699)" fill="#606465" font-family="'DINPro-Light'" font-size="10">Ma</text>
<text transform="matrix(1 0 0 1 515.4199 906.6699)" fill="#606465" font-family="'DINPro-Light'" font-size="10">t</text>
<text transform="matrix(1 0 0 1 518.6504 906.6699)" fill="#606465" font-family="'DINPro-Light'" font-size="10">emáti</text>
<text transform="matrix(1 0 0 1 543.5996 906.6699)" fill="#606465" font-family="'DINPro-Light'" font-size="10">c</text>
<text transform="matrix(1 0 0 1 548.4902 906.6699)" fill="#606465" font-family="'DINPro-Light'" font-size="10">a</text>
<text transform="matrix(1 0 0 1 513.335 925.3652)" fill="#606465" font-family="'DINPro-Light'" font-size="10">M</text>
<text transform="matrix(1 0 0 1 521.5146 925.3652)" fill="#606465" font-family="'DINPro-Light'" font-size="10">A</text>
<text transform="matrix(1 0 0 1 527.4453 925.3652)" fill="#606465" font-family="'DINPro-Light'" font-size="10">C Y WIND</text>
<text transform="matrix(1 0 0 1 569.2549 925.3652)" fill="#606465" font-family="'DINPro-Light'" font-size="10">O</text>
<text transform="matrix(1 0 0 1 575.6748 925.3652)" fill="#606465" font-family="'DINPro-Light'" font-size="10">WS</text>
<polygon fill="#FFF200" stroke="#FFF200" stroke-width="2" stroke-linecap="round" stroke-linejoin="round" stroke-miterlimit="10" points="
	218.868,148.946 206.464,167.656 193.979,148.946 169.09,148.946 193.979,186.24 193.979,236.058 218.868,236.058 218.868,186.279 
	218.894,186.279 218.894,186.279 243.756,148.946 "/>
<polygon fill="#FFF200" stroke="#FFF200" stroke-width="2" stroke-linecap="round" stroke-linejoin="round" stroke-miterlimit="10" points="
	131.757,148.946 106.868,174.183 106.868,148.946 81.979,148.946 81.979,236.058 106.868,236.058 106.868,202.872 131.757,236.058 
	156.646,236.058 119.534,186.576 156.646,148.946 "/>
<rect x="119.312" y="111.613" fill="#FFF200" stroke="#FFF200" stroke-width="2" stroke-linecap="round" stroke-linejoin="round" stroke-miterlimit="10" width="24.889" height="24.889"/>
<path fill="#FFF200" stroke="#FFF200" stroke-width="2" stroke-linecap="round" stroke-linejoin="round" stroke-miterlimit="10" d="
	M106.868,49.391H81.979v49.778v37.333h24.889V99.168h49.778V49.391H106.868z M144.201,86.724h-24.889V74.28h24.889V86.724z"/>
<polygon fill="#FFF200" stroke="#FFF200" stroke-width="2" stroke-linecap="round" stroke-linejoin="round" stroke-miterlimit="10" points="
	218.868,49.391 218.868,92.946 193.979,49.391 169.089,49.391 169.089,136.502 193.979,136.502 193.979,92.946 218.868,136.502 
	243.756,136.502 243.756,49.391 "/>
</svg>
